<svg xmlns="http://www.w3.org/2000/svg" width="14.377" height="14.377" viewBox="0 0 14.377 14.377">
  <path id="facebook" d="M2.106,14.377H6.8V9.266H5.11V7.581H6.8V5.475A2.108,2.108,0,0,1,8.9,3.37h2.106V5.054H9.322A.843.843,0,0,0,8.48,5.9V7.581h2.451L10.65,9.266H8.48v5.11h3.791a2.108,2.108,0,0,0,2.106-2.106V2.106A2.108,2.108,0,0,0,12.271,0H2.106A2.108,2.108,0,0,0,0,2.106V12.271A2.108,2.108,0,0,0,2.106,14.377ZM.842,2.106A1.265,1.265,0,0,1,2.106.842H12.271a1.265,1.265,0,0,1,1.264,1.264V12.271a1.265,1.265,0,0,1-1.264,1.264H9.322V10.109h2.042l.562-3.37h-2.6V5.9H11.85V2.527H8.9A2.952,2.952,0,0,0,5.953,5.475V6.739H4.268v3.37H5.953v3.426H2.106A1.265,1.265,0,0,1,.842,12.271Zm0,0" fill="#a5a5a5"/>
</svg>
