<svg id="Group_123" data-name="Group 123" xmlns="http://www.w3.org/2000/svg" width="15.46" height="15.46" viewBox="0 0 15.46 15.46">
  <path id="Path_88" data-name="Path 88" d="M2.265,15.46H13.2A2.267,2.267,0,0,0,15.46,13.2V2.265A2.267,2.267,0,0,0,13.2,0H2.265A2.267,2.267,0,0,0,0,2.265V13.2A2.267,2.267,0,0,0,2.265,15.46ZM.906,2.265A1.36,1.36,0,0,1,2.265.906H13.2a1.36,1.36,0,0,1,1.359,1.359V13.2A1.36,1.36,0,0,1,13.2,14.554H2.265A1.36,1.36,0,0,1,.906,13.2Zm0,0" fill="#a5a5a5"/>
  <path id="Path_89" data-name="Path 89" d="M125.076,129.153A4.076,4.076,0,1,0,121,125.076,4.081,4.081,0,0,0,125.076,129.153Zm0-7.247a3.17,3.17,0,1,1-3.17,3.17A3.174,3.174,0,0,1,125.076,121.906Zm0,0" transform="translate(-117.346 -117.347)" fill="#a5a5a5"/>
  <path id="Path_90" data-name="Path 90" d="M362.359,63.718A1.359,1.359,0,1,0,361,62.359,1.36,1.36,0,0,0,362.359,63.718Zm0-1.812a.453.453,0,1,1-.453.453A.453.453,0,0,1,362.359,61.906Zm0,0" transform="translate(-350.1 -59.158)" fill="#a5a5a5"/>
</svg>
