<svg id="linkedin" xmlns="http://www.w3.org/2000/svg" width="15.082" height="15.082" viewBox="0 0 15.082 15.082">
  <path id="Path_82" data-name="Path 82" d="M12.873,0H2.209A2.212,2.212,0,0,0,0,2.209V12.873a2.212,2.212,0,0,0,2.209,2.209H12.873a2.212,2.212,0,0,0,2.209-2.209V2.209A2.212,2.212,0,0,0,12.873,0ZM14.2,12.873A1.327,1.327,0,0,1,12.873,14.2H2.209A1.327,1.327,0,0,1,.884,12.873V2.209A1.327,1.327,0,0,1,2.209.884H12.873A1.327,1.327,0,0,1,14.2,2.209Zm0,0" fill="#a5a5a5"/>
  <path id="Path_83" data-name="Path 83" d="M91,216.245h2.651V210H91Zm.884-5.361h.884v4.478h-.884Zm0,0" transform="translate(-88.319 -203.814)" fill="#a5a5a5"/>
  <path id="Path_84" data-name="Path 84" d="M214.537,210h0a2.646,2.646,0,0,0-.884.15V210H211v6.245h2.651v-3.152a.442.442,0,1,1,.884,0v3.152h2.651v-3.456A2.777,2.777,0,0,0,214.537,210Zm1.765,5.361h-.884v-2.268a1.326,1.326,0,0,0-2.651,0v2.268h-.884v-4.478h.884v.884l.707-.531a1.752,1.752,0,0,1,1.06-.353h0a1.889,1.889,0,0,1,1.766,1.906Zm0,0" transform="translate(-204.784 -203.814)" fill="#a5a5a5"/>
  <path id="Path_85" data-name="Path 85" d="M91,92.651h2.651V90H91Zm.884-1.767h.884v.884h-.884Zm0,0" transform="translate(-88.319 -87.349)" fill="#a5a5a5"/>
</svg>
