<svg xmlns="http://www.w3.org/2000/svg" width="16.082" height="13.163" viewBox="0 0 16.082 13.163">
  <path id="twitter" d="M16.082,1.758c-1.012.047-.99.043-1.1.052L15.577.1s-1.87.688-2.344.811A3.752,3.752,0,0,0,8.814.555,3.061,3.061,0,0,0,7.343,3.7,8.163,8.163,0,0,1,2.055.725L1.611.192,1.279.8A3.679,3.679,0,0,0,.887,3.278a3.558,3.558,0,0,0,.345.967L.852,4.1l-.045.636A3.393,3.393,0,0,0,1.382,6.75,3.587,3.587,0,0,0,1.83,7.3l-.2-.03L1.873,8a3.542,3.542,0,0,0,1.821,2.11c-.849.36-1.535.59-2.663.961L0,11.412l.953.521a10,10,0,0,0,2.916,1.061c2.82.442,5.994.082,8.131-1.843a7.653,7.653,0,0,0,2.268-6.327,1.5,1.5,0,0,1,.28-.976C14.947,3.315,16.08,1.762,16.082,1.758ZM13.794,3.283a2.442,2.442,0,0,0-.467,1.589,6.661,6.661,0,0,1-1.958,5.579c-1.662,1.5-4.343,2.085-7.355,1.612A7.294,7.294,0,0,1,2.438,11.6a24.989,24.989,0,0,0,2.854-1.173l1.646-.779L5.121,9.527A2.57,2.57,0,0,1,3.081,8.364a3.259,3.259,0,0,0,.692-.115l1.733-.483L3.758,7.338a2.6,2.6,0,0,1-1.59-1.106,2.666,2.666,0,0,1-.345-.76,4.363,4.363,0,0,0,.709.113l1.618.16-1.282-1A2.7,2.7,0,0,1,1.846,1.9,9.375,9.375,0,0,0,8.453,4.747a5.579,5.579,0,0,0-.1-.8,2.163,2.163,0,0,1,.951-2.59,2.814,2.814,0,0,1,3.32.275.843.843,0,0,0,.774.207,6.512,6.512,0,0,0,.638-.194l-.406,1.16h.519Zm0,0" transform="translate(0 0)" fill="#a5a5a5"/>
</svg>
