<svg id="youtube" xmlns="http://www.w3.org/2000/svg" width="19.8" height="15.082" viewBox="0 0 19.8 15.082">
  <path id="Path_86" data-name="Path 86" d="M2.9,15.082h14a2.9,2.9,0,0,0,2.9-2.9V2.9A2.9,2.9,0,0,0,16.9,0H2.9A2.9,2.9,0,0,0,0,2.9v9.281A2.9,2.9,0,0,0,2.9,15.082ZM1.16,2.9A1.742,1.742,0,0,1,2.9,1.16h14A1.742,1.742,0,0,1,18.64,2.9v9.281a1.742,1.742,0,0,1-1.74,1.74H2.9a1.742,1.742,0,0,1-1.74-1.74Zm0,0" fill="#a5a5a5"/>
  <path id="Path_87" data-name="Path 87" d="M181,94.508v7.885l6.98-4.007Zm1.16,1.972,3.461,1.923-3.461,1.987Zm0,0" transform="translate(-174 -90.853)" fill="#a5a5a5"/>
</svg>
